<?xml version="1.0" encoding="UTF-8" standalone="no"?>
<svg
   xmlns:dc="http://purl.org/dc/elements/1.1/"
   xmlns:cc="http://creativecommons.org/ns#"
   xmlns:rdf="http://www.w3.org/1999/02/22-rdf-syntax-ns#"
   xmlns:svg="http://www.w3.org/2000/svg"
   xmlns="http://www.w3.org/2000/svg"
   xmlns:sodipodi="http://sodipodi.sourceforge.net/DTD/sodipodi-0.dtd"
   xmlns:inkscape="http://www.inkscape.org/namespaces/inkscape"
   width="91.440002mm"
   height="128.5mm"
   viewBox="0 0 91.44001 128.50002"
   version="1.1"
   id="svg8"
   sodipodi:docname="bench1.svg"
   inkscape:version="1.0 (4035a4fb49, 2020-05-01)">
  <sodipodi:namedview
     pagecolor="#ffffff"
     bordercolor="#666666"
     borderopacity="1"
     objecttolerance="10"
     gridtolerance="10"
     guidetolerance="10"
     inkscape:pageopacity="0"
     inkscape:pageshadow="2"
     inkscape:window-width="1920"
     inkscape:window-height="1017"
     id="namedview46"
     showgrid="false"
     showguides="true"
     inkscape:guide-bbox="true"
     inkscape:object-nodes="false"
     inkscape:snap-object-midpoints="true"
     inkscape:zoom="2.0142744"
     inkscape:cx="107.40169"
     inkscape:cy="246.98513"
     inkscape:window-x="-8"
     inkscape:window-y="-8"
     inkscape:window-maximized="1"
     inkscape:current-layer="layer4"
     inkscape:snap-bbox="true"
     inkscape:snap-bbox-edge-midpoints="true"
     inkscape:document-rotation="0">
    <sodipodi:guide
       position="0,0"
       orientation="0,345.60001"
       id="guide91"
       inkscape:locked="false" />
    <sodipodi:guide
       position="91.440015,0"
       orientation="-485.66929,0"
       id="guide93"
       inkscape:locked="false" />
    <sodipodi:guide
       position="91.440015,128.50002"
       orientation="0,-345.60001"
       id="guide95"
       inkscape:locked="false" />
    <sodipodi:guide
       position="0,128.50002"
       orientation="485.66929,0"
       id="guide97"
       inkscape:locked="false" />
    <sodipodi:guide
       position="45.719997,102.69003"
       orientation="1,0"
       id="guide99"
       inkscape:locked="false" />
    <sodipodi:guide
       position="45.719995,102.69003"
       orientation="0,1"
       id="guide101"
       inkscape:locked="false" />
    <sodipodi:guide
       position="45.719995,72.69003"
       orientation="0,1"
       id="guide103"
       inkscape:locked="false" />
    <sodipodi:guide
       position="45.719995,44.787426"
       orientation="0,1"
       id="guide105"
       inkscape:locked="false" />
    <sodipodi:guide
       position="45.719995,19.787425"
       orientation="0,1"
       id="guide107"
       inkscape:locked="false" />
    <sodipodi:guide
       position="15.239999,102.69002"
       orientation="1,0"
       id="guide109"
       inkscape:locked="false" />
    <sodipodi:guide
       position="76.199994,102.69003"
       orientation="1,0"
       id="guide111"
       inkscape:locked="false" />
    <sodipodi:guide
       inkscape:color="rgb(0,0,255)"
       inkscape:locked="false"
       inkscape:label=""
       id="guide964"
       orientation="-1,0"
       position="30.480004,145.16877" />
  </sodipodi:namedview>
  <defs
     id="defs2" />
  <metadata
     id="metadata5">
    <rdf:RDF>
      <cc:Work
         rdf:about="">
        <dc:format>image/svg+xml</dc:format>
        <dc:type
           rdf:resource="http://purl.org/dc/dcmitype/StillImage" />
        <dc:title />
      </cc:Work>
    </rdf:RDF>
  </metadata>
  <g
     sodipodi:insensitive="true"
     inkscape:groupmode="layer"
     id="layer3"
     inkscape:label="Layer 1"
     style="display:inline">
    <rect
       y="-1.0517578e-05"
       x="1.776352e-16"
       height="128.5"
       width="91.440002"
       id="rect420"
       style="display:inline;opacity:1;vector-effect:none;fill:#e6e6e6;fill-opacity:1;fill-rule:evenodd;stroke:none;stroke-width:0.649358;stroke-linecap:butt;stroke-linejoin:miter;stroke-miterlimit:4;stroke-dasharray:none;stroke-dashoffset:0;stroke-opacity:1;paint-order:normal" />
    <g
       aria-label="rackbench"
       style="font-style:normal;font-variant:normal;font-weight:normal;font-stretch:normal;font-size:7.05556px;line-height:0%;font-family:Arial;-inkscape-font-specification:'Arial, Normal';font-variant-ligatures:normal;font-variant-caps:normal;font-variant-numeric:normal;text-align:center;letter-spacing:0px;word-spacing:0px;writing-mode:lr-tb;text-anchor:middle;fill:#000000;fill-opacity:1;stroke:none;stroke-width:0.264583px;stroke-linecap:butt;stroke-linejoin:miter;stroke-opacity:1"
       id="text60">
      <path
         d="m 36.63735,8.6796222 h -0.02067 q -0.08682,-0.020671 -0.169498,-0.028939 -0.08062,-0.010335 -0.192237,-0.010335 -0.179834,0 -0.347265,0.080615 -0.167432,0.078548 -0.322461,0.2046387 V 10.564778 H 35.196611 V 8.2558755 h 0.388607 v 0.3410644 q 0.23151,-0.1860352 0.40721,-0.2625163 0.177767,-0.078548 0.361735,-0.078548 0.101286,0 0.146761,0.0062 0.04548,0.00413 0.136426,0.018603 z"
         style="font-style:normal;font-variant:normal;font-weight:normal;font-stretch:normal;font-size:4.23333px;font-family:Verdana;-inkscape-font-specification:Verdana;stroke-width:0.264583px"
         id="path183"
         inkscape:connector-curvature="0" />
      <path
         d="m 38.801559,10.564778 h -0.38654 v -0.245979 q -0.05168,0.03514 -0.14056,0.09922 -0.08682,0.06201 -0.169498,0.09922 -0.09715,0.04754 -0.223243,0.07855 -0.12609,0.03307 -0.295589,0.03307 -0.312125,0 -0.529166,-0.206706 -0.217041,-0.206705 -0.217041,-0.5270992 0,-0.2625163 0.111621,-0.4237467 0.113688,-0.1632975 0.322461,-0.2563151 0.210839,-0.093018 0.506429,-0.1260905 0.295589,-0.033073 0.634586,-0.049609 v -0.059945 q 0,-0.1322917 -0.04754,-0.2191081 -0.04548,-0.086816 -0.132292,-0.1364258 -0.08268,-0.047542 -0.198437,-0.064079 -0.115756,-0.016537 -0.241846,-0.016537 -0.152962,0 -0.341064,0.041341 -0.188103,0.039274 -0.388607,0.1157552 h -0.02067 v -0.394809 q 0.113688,-0.031006 0.328662,-0.068213 0.214974,-0.037207 0.423747,-0.037207 0.243913,0 0.423747,0.041341 0.181901,0.039274 0.314192,0.1364257 0.130225,0.095085 0.198438,0.2459798 0.06821,0.1508952 0.06821,0.3741374 z M 38.415019,9.9963376 V 9.3534828 q -0.177767,0.010335 -0.419612,0.031006 -0.239779,0.02067 -0.380339,0.059945 -0.167432,0.047542 -0.270784,0.1488282 -0.103353,0.099219 -0.103353,0.2749186 0,0.1984384 0.119889,0.2997234 0.119889,0.09922 0.365869,0.09922 0.204639,0 0.374137,-0.07855 0.169499,-0.08061 0.314193,-0.1922364 z"
         style="font-style:normal;font-variant:normal;font-weight:normal;font-stretch:normal;font-size:4.23333px;font-family:Verdana;-inkscape-font-specification:Verdana;stroke-width:0.264583px"
         id="path185"
         inkscape:connector-curvature="0" />
      <path
         d="m 41.261357,10.420084 q -0.194304,0.09302 -0.370003,0.144694 -0.173633,0.05168 -0.370004,0.05168 -0.250114,0 -0.458886,-0.07235 -0.208773,-0.07441 -0.357601,-0.223242 -0.150895,-0.148829 -0.233578,-0.3762048 -0.08268,-0.2273763 -0.08268,-0.5312337 0,-0.5663737 0.310059,-0.8888346 0.312125,-0.3224609 0.822688,-0.3224609 0.198438,0 0.388607,0.05581 0.192236,0.055811 0.3514,0.1364258 v 0.4320149 h -0.02067 q -0.17777,-0.1384923 -0.367939,-0.2129064 -0.188102,-0.074414 -0.367936,-0.074414 -0.330729,0 -0.522966,0.2232422 -0.190169,0.2211751 -0.190169,0.651123 0,0.4175455 0.186035,0.6428545 0.188103,0.223242 0.5271,0.223242 0.117822,0 0.239779,-0.03101 0.121956,-0.03101 0.219108,-0.08062 0.08475,-0.04341 0.159163,-0.09095 0.07441,-0.04961 0.117822,-0.084749 h 0.02067 z"
         style="font-style:normal;font-variant:normal;font-weight:normal;font-stretch:normal;font-size:4.23333px;font-family:Verdana;-inkscape-font-specification:Verdana;stroke-width:0.264583px"
         id="path187"
         inkscape:connector-curvature="0" />
      <path
         d="m 43.857581,10.564778 h -0.51263 L 42.418909,9.5539874 42.166728,9.793766 v 0.771012 H 41.778121 V 7.3484374 h 0.388607 v 2.062923 L 43.28914,8.2558755 h 0.489893 L 42.70623,9.322477 Z"
         style="font-style:normal;font-variant:normal;font-weight:normal;font-stretch:normal;font-size:4.23333px;font-family:Verdana;-inkscape-font-specification:Verdana;stroke-width:0.264583px"
         id="path189"
         inkscape:connector-curvature="0" />
      <path
         d="m 46.298775,9.3927569 q 0,0.289388 -0.08268,0.5208984 -0.08062,0.2315107 -0.219108,0.3886067 -0.146761,0.163298 -0.322461,0.24598 -0.1757,0.08061 -0.38654,0.08061 -0.19637,0 -0.343131,-0.04754 -0.146762,-0.04547 -0.289388,-0.124024 l -0.02481,0.107487 H 44.266858 V 7.3484374 h 0.388607 v 1.1492837 q 0.163297,-0.1343587 0.347265,-0.219108 0.183968,-0.086816 0.413412,-0.086816 0.409277,0 0.644921,0.3141927 0.237712,0.3141927 0.237712,0.8867671 z m -0.401009,0.010335 q 0,-0.4134114 -0.136426,-0.6263183 -0.136426,-0.214974 -0.440283,-0.214974 -0.169499,0 -0.343132,0.074414 -0.173632,0.072347 -0.32246,0.1881022 v 1.3229172 q 0.165364,0.07441 0.283186,0.103353 0.11989,0.02894 0.270785,0.02894 0.322461,0 0.504362,-0.210839 0.183968,-0.2129077 0.183968,-0.6655932 z"
         style="font-style:normal;font-variant:normal;font-weight:normal;font-stretch:normal;font-size:4.23333px;font-family:Verdana;-inkscape-font-specification:Verdana;stroke-width:0.264583px"
         id="path191"
         inkscape:connector-curvature="0" />
      <path
         d="m 48.837121,9.4506345 h -1.701188 q 0,0.2129069 0.06408,0.3720703 0.06408,0.1570963 0.175699,0.2583822 0.107487,0.09922 0.254248,0.148828 0.148829,0.04961 0.326596,0.04961 0.235644,0 0.473356,-0.09302 0.239778,-0.09509 0.341064,-0.186035 h 0.02067 v 0.423746 q -0.196371,0.08268 -0.401009,0.138493 -0.204639,0.05581 -0.429948,0.05581 -0.574642,0 -0.897103,-0.310059 -0.322461,-0.3121254 -0.322461,-0.8847002 0,-0.5663737 0.307991,-0.8991699 0.310059,-0.3327962 0.814421,-0.3327962 0.467155,0 0.719336,0.2728515 0.254248,0.2728516 0.254248,0.7751465 z M 48.458849,9.1529783 Q 48.456782,8.8470538 48.30382,8.6796222 48.152925,8.5121905 47.842866,8.5121905 q -0.312125,0 -0.49816,0.1839681 -0.183968,0.1839681 -0.208773,0.4568197 z"
         style="font-style:normal;font-variant:normal;font-weight:normal;font-stretch:normal;font-size:4.23333px;font-family:Verdana;-inkscape-font-specification:Verdana;stroke-width:0.264583px"
         id="path193"
         inkscape:connector-curvature="0" />
      <path
         d="M 51.356864,10.564778 H 50.968258 V 9.25013 q 0,-0.1591634 -0.0186,-0.2976563 -0.0186,-0.1405599 -0.06821,-0.219108 -0.05168,-0.086816 -0.148828,-0.1281576 -0.09715,-0.043408 -0.252181,-0.043408 -0.159163,0 -0.332796,0.078548 -0.173633,0.078548 -0.332796,0.2005045 V 10.564778 H 49.426233 V 8.2558755 h 0.388607 v 0.256315 q 0.181901,-0.1508951 0.376204,-0.2356445 0.194303,-0.084749 0.398942,-0.084749 0.374137,0 0.570508,0.2253092 0.19637,0.2253092 0.19637,0.649056 z"
         style="font-style:normal;font-variant:normal;font-weight:normal;font-stretch:normal;font-size:4.23333px;font-family:Verdana;-inkscape-font-specification:Verdana;stroke-width:0.264583px"
         id="path195"
         inkscape:connector-curvature="0" />
      <path
         d="m 53.812528,10.420084 q -0.194304,0.09302 -0.370004,0.144694 -0.173632,0.05168 -0.370003,0.05168 -0.250114,0 -0.458886,-0.07235 -0.208773,-0.07441 -0.357601,-0.223242 -0.150896,-0.148829 -0.233578,-0.3762048 -0.08268,-0.2273763 -0.08268,-0.5312337 0,-0.5663737 0.310058,-0.8888346 0.312126,-0.3224609 0.822689,-0.3224609 0.198438,0 0.388607,0.05581 0.192236,0.055811 0.3514,0.1364258 v 0.4320149 h -0.02067 q -0.17777,-0.1384923 -0.367939,-0.2129064 -0.188102,-0.074414 -0.367936,-0.074414 -0.330729,0 -0.522966,0.2232422 -0.190169,0.2211751 -0.190169,0.651123 0,0.4175455 0.186035,0.6428545 0.188102,0.223242 0.5271,0.223242 0.117822,0 0.239778,-0.03101 0.121957,-0.03101 0.219108,-0.08062 0.08475,-0.04341 0.159164,-0.09095 0.07441,-0.04961 0.117822,-0.084749 h 0.02067 z"
         style="font-style:normal;font-variant:normal;font-weight:normal;font-stretch:normal;font-size:4.23333px;font-family:Verdana;-inkscape-font-specification:Verdana;stroke-width:0.264583px"
         id="path197"
         inkscape:connector-curvature="0" />
      <path
         d="M 56.243387,10.564778 H 55.85478 V 9.25013 q 0,-0.1591634 -0.0186,-0.2976563 -0.0186,-0.1405599 -0.06821,-0.219108 -0.05168,-0.086816 -0.148829,-0.1281576 -0.09715,-0.043408 -0.252181,-0.043408 -0.159163,0 -0.332796,0.078548 -0.173633,0.078548 -0.332796,0.2005045 V 10.564778 H 54.312755 V 7.3484374 h 0.388607 v 1.1637531 q 0.181901,-0.1508951 0.376204,-0.2356445 0.194304,-0.084749 0.398942,-0.084749 0.374138,0 0.570508,0.2253092 0.196371,0.2253092 0.196371,0.649056 z"
         style="font-style:normal;font-variant:normal;font-weight:normal;font-stretch:normal;font-size:4.23333px;font-family:Verdana;-inkscape-font-specification:Verdana;stroke-width:0.264583px"
         id="path199"
         inkscape:connector-curvature="0" />
    </g>
    <g
       aria-label="PARAM0"
       style="font-style:normal;font-variant:normal;font-weight:normal;font-stretch:normal;font-size:7.05556px;line-height:0%;font-family:Arial;-inkscape-font-specification:'Arial, Normal';font-variant-ligatures:normal;font-variant-caps:normal;font-variant-numeric:normal;text-align:center;letter-spacing:0px;word-spacing:0px;writing-mode:lr-tb;text-anchor:middle;fill:#000000;fill-opacity:1;stroke:none;stroke-width:0.264583px;stroke-linecap:butt;stroke-linejoin:miter;stroke-opacity:1"
       id="text84">
      <path
         d="m 9.894074,35.636821 q 0,0.170532 -0.060289,0.316949 -0.058567,0.144694 -0.1653646,0.251492 -0.1326362,0.132636 -0.3135037,0.199815 -0.1808675,0.06546 -0.4564751,0.06546 H 8.557377 v 0.956014 H 8.2163125 v -2.564874 h 0.6959093 q 0.2308214,0 0.3910183,0.03962 0.1601969,0.0379 0.2842204,0.120578 0.1464165,0.09819 0.2256537,0.244602 0.08096,0.146417 0.08096,0.370348 z m -0.3548449,0.0086 q 0,-0.132636 -0.046509,-0.230822 -0.046509,-0.09819 -0.141249,-0.160197 -0.082682,-0.0534 -0.1894802,-0.07579 -0.1050754,-0.02412 -0.2669949,-0.02412 H 8.557377 v 1.024915 h 0.2876654 q 0.2067057,0 0.3358968,-0.03617 0.1291911,-0.0379 0.2101508,-0.118856 0.08096,-0.08268 0.1136882,-0.173977 0.034451,-0.0913 0.034451,-0.204983 z"
         style="font-style:normal;font-variant:normal;font-weight:normal;font-stretch:normal;font-size:3.52778px;font-family:Verdana;-inkscape-font-specification:Verdana;stroke-width:0.264583px"
         id="path170"
         inkscape:connector-curvature="0" />
      <path
         d="m 12.367652,37.426548 h -0.363457 l -0.251492,-0.714857 h -1.109321 l -0.251492,0.714857 h -0.346232 l 0.933621,-2.564874 h 0.454753 z m -0.720025,-1.00769 -0.449585,-1.259183 -0.451307,1.259183 z"
         style="font-style:normal;font-variant:normal;font-weight:normal;font-stretch:normal;font-size:3.52778px;font-family:Verdana;-inkscape-font-specification:Verdana;stroke-width:0.264583px"
         id="path172"
         inkscape:connector-curvature="0" />
      <path
         d="M 14.879127,37.426548 H 14.436432 L 13.578603,36.4068 h -0.48059 v 1.019748 h -0.341065 v -2.564874 h 0.718302 q 0.232544,0 0.387574,0.03101 0.155029,0.02928 0.279052,0.106798 0.139527,0.08785 0.217041,0.222209 0.07924,0.132636 0.07924,0.337619 0,0.27733 -0.139527,0.465088 -0.139526,0.186035 -0.384128,0.280775 z m -0.79754,-1.843126 q 0,-0.110243 -0.03962,-0.194648 -0.0379,-0.08613 -0.127469,-0.144694 -0.07407,-0.04995 -0.1757,-0.0689 -0.10163,-0.02067 -0.239434,-0.02067 h -0.401353 v 0.968071 h 0.344509 q 0.16192,0 0.282498,-0.02756 0.120578,-0.02928 0.204983,-0.106798 0.07752,-0.07235 0.113688,-0.165365 0.0379,-0.09474 0.0379,-0.239434 z"
         style="font-style:normal;font-variant:normal;font-weight:normal;font-stretch:normal;font-size:3.52778px;font-family:Verdana;-inkscape-font-specification:Verdana;stroke-width:0.264583px"
         id="path174"
         inkscape:connector-curvature="0" />
      <path
         d="M 17.232127,37.426548 H 16.86867 l -0.251492,-0.714857 h -1.109321 l -0.251492,0.714857 h -0.346232 l 0.933621,-2.564874 h 0.454752 z m -0.720025,-1.00769 -0.449585,-1.259183 -0.451307,1.259183 z"
         style="font-style:normal;font-variant:normal;font-weight:normal;font-stretch:normal;font-size:3.52778px;font-family:Verdana;-inkscape-font-specification:Verdana;stroke-width:0.264583px"
         id="path176"
         inkscape:connector-curvature="0" />
      <path
         d="m 19.905521,37.426548 h -0.341064 v -2.210029 l -0.713135,1.503784 h -0.203261 l -0.707967,-1.503784 v 2.210029 h -0.318671 v -2.564874 h 0.465088 l 0.683851,1.427993 0.661458,-1.427993 h 0.473701 z"
         style="font-style:normal;font-variant:normal;font-weight:normal;font-stretch:normal;font-size:3.52778px;font-family:Verdana;-inkscape-font-specification:Verdana;stroke-width:0.264583px"
         id="path178"
         inkscape:connector-curvature="0" />
      <path
         d="m 22.263689,36.14325 q 0,0.690742 -0.217041,1.014581 -0.215318,0.322116 -0.670071,0.322116 -0.461643,0 -0.675239,-0.327284 -0.211873,-0.327284 -0.211873,-1.005968 0,-0.683851 0.215318,-1.009413 0.215319,-0.327284 0.671794,-0.327284 0.461643,0 0.673516,0.332452 0.213596,0.330729 0.213596,1.0008 z m -0.45303,0.782037 q 0.06029,-0.139527 0.08096,-0.327284 0.02239,-0.189481 0.02239,-0.454753 0,-0.261827 -0.02239,-0.454753 -0.02067,-0.192925 -0.08268,-0.327284 -0.06029,-0.132636 -0.165364,-0.199815 -0.103353,-0.06718 -0.266995,-0.06718 -0.16192,0 -0.268718,0.06718 -0.105075,0.06718 -0.167087,0.20326 -0.05857,0.127469 -0.08096,0.332452 -0.02067,0.204983 -0.02067,0.449585 0,0.268718 0.01895,0.449585 0.01895,0.180868 0.08096,0.323839 0.05684,0.134359 0.160197,0.204983 0.105075,0.07062 0.27733,0.07062 0.161919,0 0.268717,-0.06718 0.106798,-0.06718 0.165365,-0.20326 z"
         style="font-style:normal;font-variant:normal;font-weight:normal;font-stretch:normal;font-size:3.52778px;font-family:Verdana;-inkscape-font-specification:Verdana;stroke-width:0.264583px"
         id="path180"
         inkscape:connector-curvature="0" />
    </g>
    <g
       aria-label="PARAM1"
       style="font-style:normal;font-variant:normal;font-weight:normal;font-stretch:normal;font-size:7.05556px;line-height:0%;font-family:Arial;-inkscape-font-specification:'Arial, Normal';font-variant-ligatures:normal;font-variant-caps:normal;font-variant-numeric:normal;text-align:center;letter-spacing:0px;word-spacing:0px;writing-mode:lr-tb;text-anchor:middle;fill:#000000;fill-opacity:1;stroke:none;stroke-width:0.264583px;stroke-linecap:butt;stroke-linejoin:miter;stroke-opacity:1"
       id="text90">
      <path
         d="m 40.374071,35.690272 q 0,0.170533 -0.06029,0.316949 -0.05857,0.144694 -0.165364,0.251492 -0.132636,0.132636 -0.313504,0.199816 -0.180867,0.06546 -0.456475,0.06546 H 39.037374 V 37.48 h -0.341065 v -2.564874 h 0.695909 q 0.230822,0 0.391019,0.03962 0.160197,0.0379 0.28422,0.120578 0.146417,0.09819 0.225654,0.244602 0.08096,0.146416 0.08096,0.370346 z m -0.354845,0.0086 q 0,-0.132636 -0.04651,-0.230821 -0.04651,-0.09819 -0.141249,-0.160197 -0.08268,-0.0534 -0.18948,-0.07579 -0.105076,-0.02412 -0.266995,-0.02412 h -0.337619 v 1.024916 h 0.287665 q 0.206706,0 0.335897,-0.03617 0.129191,-0.0379 0.210151,-0.118856 0.08096,-0.08268 0.113688,-0.173978 0.03445,-0.0913 0.03445,-0.204983 z"
         style="font-style:normal;font-variant:normal;font-weight:normal;font-stretch:normal;font-size:3.52778px;font-family:Verdana;-inkscape-font-specification:Verdana;stroke-width:0.264583px"
         id="path157"
         inkscape:connector-curvature="0" />
      <path
         d="M 42.847649,37.48 H 42.484191 L 42.2327,36.765142 H 41.123379 L 40.871887,37.48 h -0.346232 l 0.933621,-2.564874 h 0.454752 z m -0.720025,-1.007691 -0.449585,-1.259182 -0.451307,1.259182 z"
         style="font-style:normal;font-variant:normal;font-weight:normal;font-stretch:normal;font-size:3.52778px;font-family:Verdana;-inkscape-font-specification:Verdana;stroke-width:0.264583px"
         id="path159"
         inkscape:connector-curvature="0" />
      <path
         d="M 45.359124,37.48 H 44.916429 L 44.0586,36.460251 H 43.578009 V 37.48 h -0.341064 v -2.564874 h 0.718302 q 0.232544,0 0.387573,0.03101 0.15503,0.02928 0.279053,0.106798 0.139526,0.08785 0.217041,0.222208 0.07924,0.132637 0.07924,0.33762 0,0.27733 -0.139526,0.465088 -0.139526,0.186035 -0.384128,0.280775 z m -0.79754,-1.843126 q 0,-0.110244 -0.03962,-0.194648 -0.0379,-0.08613 -0.127468,-0.144694 -0.07407,-0.04995 -0.1757,-0.0689 -0.10163,-0.02067 -0.239434,-0.02067 h -0.401354 v 0.968072 h 0.34451 q 0.161919,0 0.282498,-0.02756 0.120578,-0.02928 0.204983,-0.106798 0.07751,-0.07235 0.113688,-0.165364 0.0379,-0.09474 0.0379,-0.239434 z"
         style="font-style:normal;font-variant:normal;font-weight:normal;font-stretch:normal;font-size:3.52778px;font-family:Verdana;-inkscape-font-specification:Verdana;stroke-width:0.264583px"
         id="path161"
         inkscape:connector-curvature="0" />
      <path
         d="m 47.712124,37.48 h -0.363458 l -0.251492,-0.714858 h -1.10932 L 45.736362,37.48 H 45.39013 l 0.93362,-2.564874 h 0.454753 z m -0.720025,-1.007691 -0.449585,-1.259182 -0.451308,1.259182 z"
         style="font-style:normal;font-variant:normal;font-weight:normal;font-stretch:normal;font-size:3.52778px;font-family:Verdana;-inkscape-font-specification:Verdana;stroke-width:0.264583px"
         id="path163"
         inkscape:connector-curvature="0" />
      <path
         d="m 50.385518,37.48 h -0.341065 v -2.210029 l -0.713134,1.503784 H 49.128058 L 48.420091,35.269971 V 37.48 H 48.10142 v -2.564874 h 0.465087 l 0.683852,1.427992 0.661458,-1.427992 h 0.473701 z"
         style="font-style:normal;font-variant:normal;font-weight:normal;font-stretch:normal;font-size:3.52778px;font-family:Verdana;-inkscape-font-specification:Verdana;stroke-width:0.264583px"
         id="path165"
         inkscape:connector-curvature="0" />
      <path
         d="m 52.600714,37.48 h -1.388373 v -0.261828 h 0.53399 V 35.49907 h -0.53399 v -0.234267 q 0.10852,0 0.232544,-0.01723 0.124023,-0.01895 0.187757,-0.0534 0.07924,-0.04306 0.124024,-0.108521 0.04651,-0.06718 0.0534,-0.179145 h 0.266995 v 2.311659 h 0.523654 z"
         style="font-style:normal;font-variant:normal;font-weight:normal;font-stretch:normal;font-size:3.52778px;font-family:Verdana;-inkscape-font-specification:Verdana;stroke-width:0.264583px"
         id="path167"
         inkscape:connector-curvature="0" />
    </g>
    <g
       aria-label="PARAM2"
       style="font-style:normal;font-variant:normal;font-weight:normal;font-stretch:normal;font-size:7.05556px;line-height:0%;font-family:Arial;-inkscape-font-specification:'Arial, Normal';font-variant-ligatures:normal;font-variant-caps:normal;font-variant-numeric:normal;text-align:center;letter-spacing:0px;word-spacing:0px;writing-mode:lr-tb;text-anchor:middle;fill:#000000;fill-opacity:1;stroke:none;stroke-width:0.264583px;stroke-linecap:butt;stroke-linejoin:miter;stroke-opacity:1"
       id="text94">
      <path
         d="m 70.852346,35.690272 q 0,0.170533 -0.06029,0.316949 -0.05857,0.144694 -0.165365,0.251492 -0.132636,0.132636 -0.313503,0.199816 -0.180868,0.06546 -0.456476,0.06546 H 69.515649 V 37.48 h -0.341065 v -2.564874 h 0.69591 q 0.230821,0 0.391018,0.03962 0.160197,0.0379 0.28422,0.120578 0.146417,0.09819 0.225654,0.244602 0.08096,0.146416 0.08096,0.370346 z m -0.354845,0.0086 q 0,-0.132636 -0.04651,-0.230821 -0.04651,-0.09819 -0.141249,-0.160197 -0.08268,-0.0534 -0.18948,-0.07579 -0.105075,-0.02412 -0.266995,-0.02412 h -0.337619 v 1.024916 h 0.287665 q 0.206706,0 0.335897,-0.03617 0.129191,-0.0379 0.210151,-0.118856 0.08096,-0.08268 0.113688,-0.173978 0.03445,-0.0913 0.03445,-0.204983 z"
         style="font-style:normal;font-variant:normal;font-weight:normal;font-stretch:normal;font-size:3.52778px;font-family:Verdana;-inkscape-font-specification:Verdana;stroke-width:0.264583px"
         id="path144"
         inkscape:connector-curvature="0" />
      <path
         d="M 73.325924,37.48 H 72.962467 L 72.710975,36.765142 H 71.601654 L 71.350162,37.48 H 71.00393 l 0.933621,-2.564874 h 0.454752 z m -0.720025,-1.007691 -0.449585,-1.259182 -0.451307,1.259182 z"
         style="font-style:normal;font-variant:normal;font-weight:normal;font-stretch:normal;font-size:3.52778px;font-family:Verdana;-inkscape-font-specification:Verdana;stroke-width:0.264583px"
         id="path146"
         inkscape:connector-curvature="0" />
      <path
         d="m 75.837399,37.48 h -0.442695 l -0.857829,-1.019749 h -0.48059 V 37.48 H 73.71522 v -2.564874 h 0.718302 q 0.232544,0 0.387574,0.03101 0.155029,0.02928 0.279052,0.106798 0.139527,0.08785 0.217041,0.222208 0.07924,0.132637 0.07924,0.33762 0,0.27733 -0.139527,0.465088 -0.139526,0.186035 -0.384128,0.280775 z m -0.79754,-1.843126 q 0,-0.110244 -0.03962,-0.194648 -0.0379,-0.08613 -0.127469,-0.144694 -0.07407,-0.04995 -0.1757,-0.0689 -0.10163,-0.02067 -0.239434,-0.02067 h -0.401353 v 0.968072 h 0.344509 q 0.16192,0 0.282498,-0.02756 0.120578,-0.02928 0.204983,-0.106798 0.07752,-0.07235 0.113688,-0.165364 0.0379,-0.09474 0.0379,-0.239434 z"
         style="font-style:normal;font-variant:normal;font-weight:normal;font-stretch:normal;font-size:3.52778px;font-family:Verdana;-inkscape-font-specification:Verdana;stroke-width:0.264583px"
         id="path148"
         inkscape:connector-curvature="0" />
      <path
         d="M 78.190399,37.48 H 77.826942 L 77.57545,36.765142 H 76.466129 L 76.214637,37.48 h -0.346232 l 0.933621,-2.564874 h 0.454752 z m -0.720025,-1.007691 -0.449585,-1.259182 -0.451307,1.259182 z"
         style="font-style:normal;font-variant:normal;font-weight:normal;font-stretch:normal;font-size:3.52778px;font-family:Verdana;-inkscape-font-specification:Verdana;stroke-width:0.264583px"
         id="path150"
         inkscape:connector-curvature="0" />
      <path
         d="m 80.863793,37.48 h -0.341064 v -2.210029 l -0.713135,1.503784 H 79.606333 L 78.898366,35.269971 V 37.48 h -0.318671 v -2.564874 h 0.465088 l 0.683851,1.427992 0.661458,-1.427992 h 0.473701 z"
         style="font-style:normal;font-variant:normal;font-weight:normal;font-stretch:normal;font-size:3.52778px;font-family:Verdana;-inkscape-font-specification:Verdana;stroke-width:0.264583px"
         id="path152"
         inkscape:connector-curvature="0" />
      <path
         d="m 83.225406,37.48 h -1.736328 v -0.360013 q 0.180867,-0.155029 0.361735,-0.310059 0.18259,-0.155029 0.339342,-0.308336 0.330729,-0.320393 0.45303,-0.508151 0.122301,-0.18948 0.122301,-0.408244 0,-0.199815 -0.132636,-0.311781 -0.130914,-0.113688 -0.366903,-0.113688 -0.156752,0 -0.339342,0.05512 -0.18259,0.05512 -0.356567,0.16881 h -0.01723 v -0.361735 q 0.122301,-0.06029 0.325562,-0.110243 0.204983,-0.04995 0.396186,-0.04995 0.394463,0 0.618394,0.191203 0.223932,0.18948 0.223932,0.515042 0,0.146416 -0.0379,0.273885 -0.03617,0.125746 -0.108521,0.239434 -0.06718,0.106798 -0.158474,0.210151 -0.08957,0.103352 -0.218764,0.229098 -0.184313,0.180868 -0.380683,0.3514 -0.19637,0.16881 -0.366903,0.313504 h 1.379761 z"
         style="font-style:normal;font-variant:normal;font-weight:normal;font-stretch:normal;font-size:3.52778px;font-family:Verdana;-inkscape-font-specification:Verdana;stroke-width:0.264583px"
         id="path154"
         inkscape:connector-curvature="0" />
    </g>
    <g
       aria-label="PARAM5"
       style="font-style:normal;font-variant:normal;font-weight:normal;font-stretch:normal;font-size:7.05556px;line-height:0%;font-family:Arial;-inkscape-font-specification:'Arial, Normal';font-variant-ligatures:normal;font-variant-caps:normal;font-variant-numeric:normal;text-align:center;letter-spacing:0px;word-spacing:0px;writing-mode:lr-tb;text-anchor:middle;fill:#000000;fill-opacity:1;stroke:none;stroke-width:0.264583px;stroke-linecap:butt;stroke-linejoin:miter;stroke-opacity:1"
       id="text98">
      <path
         d="m 70.852354,65.638534 q 0,0.170532 -0.06029,0.316949 -0.05857,0.144694 -0.165364,0.251491 -0.132636,0.132637 -0.313504,0.199816 -0.180867,0.06546 -0.456475,0.06546 h -0.341064 v 0.956014 H 69.174592 V 64.86339 h 0.695909 q 0.230822,0 0.391019,0.03962 0.160197,0.0379 0.28422,0.120578 0.146417,0.09819 0.225654,0.244602 0.08096,0.146417 0.08096,0.370348 z m -0.354845,0.0086 q 0,-0.132636 -0.04651,-0.230821 -0.04651,-0.09819 -0.141249,-0.160197 -0.08268,-0.0534 -0.18948,-0.07579 -0.105076,-0.02412 -0.266995,-0.02412 h -0.337619 v 1.024916 h 0.287665 q 0.206706,0 0.335897,-0.03617 0.129191,-0.0379 0.210151,-0.118856 0.08096,-0.08268 0.113688,-0.173977 0.03445,-0.0913 0.03445,-0.204984 z"
         style="font-style:normal;font-variant:normal;font-weight:normal;font-stretch:normal;font-size:3.52778px;font-family:Verdana;-inkscape-font-specification:Verdana;stroke-width:0.264583px"
         id="path131"
         inkscape:connector-curvature="0" />
      <path
         d="m 73.325932,67.428261 h -0.363458 l -0.251492,-0.714857 h -1.10932 l -0.251492,0.714857 h -0.346232 l 0.933621,-2.564874 h 0.454752 z M 72.605907,66.42057 72.156322,65.161388 71.705015,66.42057 Z"
         style="font-style:normal;font-variant:normal;font-weight:normal;font-stretch:normal;font-size:3.52778px;font-family:Verdana;-inkscape-font-specification:Verdana;stroke-width:0.264583px"
         id="path133"
         inkscape:connector-curvature="0" />
      <path
         d="m 75.837406,67.428261 h -0.442694 l -0.857829,-1.019748 h -0.480591 v 1.019748 h -0.341064 v -2.564874 h 0.718302 q 0.232544,0 0.387573,0.03101 0.15503,0.02928 0.279053,0.106798 0.139526,0.08785 0.217041,0.222209 0.07924,0.132636 0.07924,0.337619 0,0.27733 -0.139526,0.465088 -0.139526,0.186035 -0.384128,0.280775 z m -0.797539,-1.843126 q 0,-0.110243 -0.03962,-0.194648 -0.0379,-0.08613 -0.127468,-0.144694 -0.07407,-0.04995 -0.1757,-0.0689 -0.10163,-0.02067 -0.239434,-0.02067 h -0.401354 v 0.968072 h 0.34451 q 0.161919,0 0.282498,-0.02756 0.120578,-0.02928 0.204983,-0.106798 0.07751,-0.07235 0.113688,-0.165364 0.0379,-0.09474 0.0379,-0.239434 z"
         style="font-style:normal;font-variant:normal;font-weight:normal;font-stretch:normal;font-size:3.52778px;font-family:Verdana;-inkscape-font-specification:Verdana;stroke-width:0.264583px"
         id="path135"
         inkscape:connector-curvature="0" />
      <path
         d="m 78.190407,67.428261 h -0.363458 l -0.251492,-0.714857 h -1.109321 l -0.251491,0.714857 h -0.346233 l 0.933621,-2.564874 h 0.454753 z M 77.470382,66.42057 77.020797,65.161388 76.569489,66.42057 Z"
         style="font-style:normal;font-variant:normal;font-weight:normal;font-stretch:normal;font-size:3.52778px;font-family:Verdana;-inkscape-font-specification:Verdana;stroke-width:0.264583px"
         id="path137"
         inkscape:connector-curvature="0" />
      <path
         d="m 80.863801,67.428261 h -0.341065 v -2.210029 l -0.713134,1.503784 h -0.203261 l -0.707967,-1.503784 v 2.210029 h -0.318672 v -2.564874 h 0.465088 l 0.683852,1.427992 0.661458,-1.427992 h 0.473701 z"
         style="font-style:normal;font-variant:normal;font-weight:normal;font-stretch:normal;font-size:3.52778px;font-family:Verdana;-inkscape-font-specification:Verdana;stroke-width:0.264583px"
         id="path139"
         inkscape:connector-curvature="0" />
      <path
         d="m 83.204743,66.613496 q 0,0.179145 -0.06546,0.342787 -0.06546,0.163642 -0.179145,0.275607 -0.124023,0.120579 -0.296278,0.186036 -0.170532,0.06373 -0.396186,0.06373 -0.210151,0 -0.404799,-0.04479 -0.194647,-0.04306 -0.329006,-0.105076 v -0.363457 h 0.02412 q 0.141248,0.08957 0.330729,0.153306 0.18948,0.06201 0.37207,0.06201 0.122301,0 0.235989,-0.03445 0.115411,-0.03445 0.204983,-0.120578 0.07579,-0.07407 0.113688,-0.177423 0.03962,-0.103353 0.03962,-0.239434 0,-0.132636 -0.04651,-0.223931 -0.04479,-0.0913 -0.125746,-0.146417 -0.08957,-0.06546 -0.218763,-0.0913 -0.127469,-0.02756 -0.285943,-0.02756 -0.151584,0 -0.292833,0.02067 -0.139527,0.02067 -0.241157,0.04134 v -1.321194 h 1.543403 v 0.301446 h -1.210951 v 0.682129 q 0.07407,-0.0069 0.151584,-0.01034 0.07751,-0.0034 0.134359,-0.0034 0.208428,0 0.36518,0.03617 0.156751,0.03445 0.287665,0.124024 0.137804,0.09474 0.213596,0.244601 0.07579,0.149862 0.07579,0.375516 z"
         style="font-style:normal;font-variant:normal;font-weight:normal;font-stretch:normal;font-size:3.52778px;font-family:Verdana;-inkscape-font-specification:Verdana;stroke-width:0.264583px"
         id="path141"
         inkscape:connector-curvature="0" />
    </g>
    <g
       aria-label="PARAM4"
       style="font-style:normal;font-variant:normal;font-weight:normal;font-stretch:normal;font-size:7.05556px;line-height:0%;font-family:Arial;-inkscape-font-specification:'Arial, Normal';font-variant-ligatures:normal;font-variant-caps:normal;font-variant-numeric:normal;text-align:center;letter-spacing:0px;word-spacing:0px;writing-mode:lr-tb;text-anchor:middle;fill:#000000;fill-opacity:1;stroke:none;stroke-width:0.264583px;stroke-linecap:butt;stroke-linejoin:miter;stroke-opacity:1"
       id="text104">
      <path
         d="m 40.353399,65.633376 q 0,0.170533 -0.06029,0.316949 -0.05857,0.144694 -0.165365,0.251492 -0.132636,0.132636 -0.313504,0.199816 -0.180867,0.06546 -0.456475,0.06546 h -0.341064 v 0.956014 H 38.675637 V 64.85823 h 0.69591 q 0.230821,0 0.391018,0.03962 0.160197,0.0379 0.28422,0.120579 0.146417,0.09819 0.225654,0.244602 0.08096,0.146416 0.08096,0.370347 z m -0.354845,0.0086 q 0,-0.132636 -0.04651,-0.230821 -0.04651,-0.09819 -0.141249,-0.160197 -0.08268,-0.0534 -0.18948,-0.07579 -0.105075,-0.02412 -0.266995,-0.02412 h -0.337619 v 1.024916 h 0.287665 q 0.206706,0 0.335897,-0.03617 0.129191,-0.0379 0.210151,-0.118855 0.08096,-0.08268 0.113688,-0.173978 0.03445,-0.09129 0.03445,-0.204983 z"
         style="font-style:normal;font-variant:normal;font-weight:normal;font-stretch:normal;font-size:3.52778px;font-family:Verdana;-inkscape-font-specification:Verdana;stroke-width:0.264583px"
         id="path118"
         inkscape:connector-curvature="0" />
      <path
         d="M 42.826977,67.423103 H 42.46352 l -0.251492,-0.714857 h -1.109321 l -0.251492,0.714857 h -0.346232 l 0.933621,-2.564873 h 0.454752 z m -0.720025,-1.00769 -0.449585,-1.259182 -0.451307,1.259182 z"
         style="font-style:normal;font-variant:normal;font-weight:normal;font-stretch:normal;font-size:3.52778px;font-family:Verdana;-inkscape-font-specification:Verdana;stroke-width:0.264583px"
         id="path120"
         inkscape:connector-curvature="0" />
      <path
         d="m 45.338452,67.423103 h -0.442695 l -0.857829,-1.019748 h -0.480591 v 1.019748 H 43.216273 V 64.85823 h 0.718302 q 0.232544,0 0.387574,0.03101 0.155029,0.02928 0.279052,0.106798 0.139527,0.08785 0.217041,0.222208 0.07924,0.132636 0.07924,0.33762 0,0.27733 -0.139526,0.465088 -0.139526,0.186035 -0.384128,0.280775 z m -0.79754,-1.843126 q 0,-0.110243 -0.03962,-0.194648 -0.0379,-0.08613 -0.127469,-0.144694 -0.07407,-0.04995 -0.1757,-0.0689 -0.10163,-0.02067 -0.239434,-0.02067 h -0.401354 v 0.968072 h 0.34451 q 0.161919,0 0.282498,-0.02756 0.120578,-0.02928 0.204983,-0.106798 0.07751,-0.07235 0.113688,-0.165365 0.0379,-0.09474 0.0379,-0.239434 z"
         style="font-style:normal;font-variant:normal;font-weight:normal;font-stretch:normal;font-size:3.52778px;font-family:Verdana;-inkscape-font-specification:Verdana;stroke-width:0.264583px"
         id="path122"
         inkscape:connector-curvature="0" />
      <path
         d="m 47.691452,67.423103 h -0.363458 l -0.251492,-0.714857 h -1.10932 l -0.251492,0.714857 h -0.346232 l 0.933621,-2.564873 h 0.454752 z m -0.720025,-1.00769 -0.449585,-1.259182 -0.451307,1.259182 z"
         style="font-style:normal;font-variant:normal;font-weight:normal;font-stretch:normal;font-size:3.52778px;font-family:Verdana;-inkscape-font-specification:Verdana;stroke-width:0.264583px"
         id="path124"
         inkscape:connector-curvature="0" />
      <path
         d="m 50.364846,67.423103 h -0.341064 v -2.210028 l -0.713135,1.503784 h -0.203261 l -0.707967,-1.503784 v 2.210028 H 48.080748 V 64.85823 h 0.465088 l 0.683851,1.427992 0.661458,-1.427992 h 0.473701 z"
         style="font-style:normal;font-variant:normal;font-weight:normal;font-stretch:normal;font-size:3.52778px;font-family:Verdana;-inkscape-font-specification:Verdana;stroke-width:0.264583px"
         id="path126"
         inkscape:connector-curvature="0" />
      <path
         d="m 52.785026,66.701356 h -0.380683 v 0.721747 h -0.33073 V 66.701356 H 50.845437 V 66.30517 l 1.241957,-1.44694 h 0.316949 v 1.567518 h 0.380683 z m -0.711413,-0.275608 v -1.157552 l -0.99391,1.157552 z"
         style="font-style:normal;font-variant:normal;font-weight:normal;font-stretch:normal;font-size:3.52778px;font-family:Verdana;-inkscape-font-specification:Verdana;stroke-width:0.264583px"
         id="path128"
         inkscape:connector-curvature="0" />
    </g>
    <g
       aria-label="PARAM3"
       style="font-style:normal;font-variant:normal;font-weight:normal;font-stretch:normal;font-size:7.05556px;line-height:0%;font-family:Arial;-inkscape-font-specification:'Arial, Normal';font-variant-ligatures:normal;font-variant-caps:normal;font-variant-numeric:normal;text-align:center;letter-spacing:0px;word-spacing:0px;writing-mode:lr-tb;text-anchor:middle;fill:#000000;fill-opacity:1;stroke:none;stroke-width:0.264583px;stroke-linecap:butt;stroke-linejoin:miter;stroke-opacity:1"
       id="text108">
      <path
         d="m 9.9026904,65.585143 q 0,0.170532 -0.060289,0.316949 -0.058567,0.144694 -0.1653645,0.251492 Q 9.5444005,66.28622 9.363533,66.3534 9.1826655,66.418856 8.9070578,66.418856 H 8.5659934 V 67.37487 H 8.224929 v -2.564873 h 0.6959092 q 0.2308214,0 0.3910184,0.03962 0.1601969,0.0379 0.2842203,0.120579 0.1464166,0.09818 0.2256538,0.244601 0.08096,0.146417 0.08096,0.370348 z m -0.3548448,0.0086 q 0,-0.132636 -0.046509,-0.230821 -0.046509,-0.09819 -0.1412489,-0.160197 -0.082682,-0.0534 -0.1894803,-0.07579 Q 9.0655322,65.10283 8.9036127,65.10283 H 8.5659934 v 1.024916 h 0.2876655 q 0.2067057,0 0.3358968,-0.03617 0.129191,-0.0379 0.2101508,-0.118856 0.08096,-0.08268 0.1136881,-0.173977 0.034451,-0.0913 0.034451,-0.204983 z"
         style="font-style:normal;font-variant:normal;font-weight:normal;font-stretch:normal;font-size:3.52778px;font-family:Verdana;-inkscape-font-specification:Verdana;stroke-width:0.264583px"
         id="path105"
         inkscape:connector-curvature="0" />
      <path
         d="m 12.376269,67.37487 h -0.363458 l -0.251492,-0.714857 h -1.10932 l -0.251492,0.714857 h -0.346232 l 0.93362,-2.564873 h 0.454753 z m -0.720025,-1.00769 -0.449585,-1.259182 -0.451308,1.259182 z"
         style="font-style:normal;font-variant:normal;font-weight:normal;font-stretch:normal;font-size:3.52778px;font-family:Verdana;-inkscape-font-specification:Verdana;stroke-width:0.264583px"
         id="path107"
         inkscape:connector-curvature="0" />
      <path
         d="M 14.887743,67.37487 H 14.445049 L 13.58722,66.355122 h -0.480591 v 1.019748 h -0.341064 v -2.564873 h 0.718302 q 0.232544,0 0.387573,0.03101 0.155029,0.02928 0.279053,0.106798 0.139526,0.08785 0.217041,0.222208 0.07924,0.132636 0.07924,0.33762 0,0.27733 -0.139526,0.465087 -0.139527,0.186036 -0.384128,0.280776 z m -0.797539,-1.843126 q 0,-0.110243 -0.03962,-0.194648 -0.0379,-0.08613 -0.127468,-0.144694 -0.07407,-0.04995 -0.1757,-0.0689 -0.101631,-0.02067 -0.239434,-0.02067 h -0.401354 v 0.968072 h 0.34451 q 0.161919,0 0.282497,-0.02756 0.120579,-0.02928 0.204984,-0.106798 0.07751,-0.07235 0.113688,-0.165365 0.0379,-0.09474 0.0379,-0.239434 z"
         style="font-style:normal;font-variant:normal;font-weight:normal;font-stretch:normal;font-size:3.52778px;font-family:Verdana;-inkscape-font-specification:Verdana;stroke-width:0.264583px"
         id="path109"
         inkscape:connector-curvature="0" />
      <path
         d="m 17.240744,67.37487 h -0.363458 l -0.251492,-0.714857 h -1.109321 l -0.251492,0.714857 h -0.346232 l 0.933621,-2.564873 h 0.454753 z m -0.720025,-1.00769 -0.449585,-1.259182 -0.451308,1.259182 z"
         style="font-style:normal;font-variant:normal;font-weight:normal;font-stretch:normal;font-size:3.52778px;font-family:Verdana;-inkscape-font-specification:Verdana;stroke-width:0.264583px"
         id="path111"
         inkscape:connector-curvature="0" />
      <path
         d="m 19.914138,67.37487 h -0.341065 v -2.210028 l -0.713135,1.503784 h -0.20326 l -0.707967,-1.503784 v 2.210028 h -0.318672 v -2.564873 h 0.465088 l 0.683852,1.427992 0.661458,-1.427992 h 0.473701 z"
         style="font-style:normal;font-variant:normal;font-weight:normal;font-stretch:normal;font-size:3.52778px;font-family:Verdana;-inkscape-font-specification:Verdana;stroke-width:0.264583px"
         id="path113"
         inkscape:connector-curvature="0" />
      <path
         d="m 22.050097,66.139804 q 0.08268,0.07407 0.136081,0.186035 0.0534,0.111965 0.0534,0.289388 0,0.1757 -0.06373,0.322116 -0.06373,0.146417 -0.179145,0.254937 -0.129191,0.120579 -0.304891,0.179145 -0.173977,0.05684 -0.382406,0.05684 -0.213596,0 -0.420301,-0.05168 -0.206706,-0.04995 -0.339342,-0.110243 v -0.360013 h 0.02584 q 0.146417,0.09646 0.344509,0.160197 0.198093,0.06373 0.382406,0.06373 0.108521,0 0.230821,-0.03617 0.122301,-0.03617 0.198093,-0.106798 0.07924,-0.07579 0.117134,-0.167087 0.03962,-0.0913 0.03962,-0.230821 0,-0.137804 -0.04479,-0.227377 -0.04306,-0.09129 -0.120578,-0.142971 -0.07751,-0.0534 -0.187758,-0.07235 -0.110243,-0.02067 -0.237712,-0.02067 H 21.142314 V 65.84008 h 0.120578 q 0.261828,0 0.416857,-0.10852 0.156752,-0.110243 0.156752,-0.320394 0,-0.09302 -0.03962,-0.16192 -0.03962,-0.07062 -0.110243,-0.11541 -0.07407,-0.04479 -0.158474,-0.06201 -0.08441,-0.01723 -0.191203,-0.01723 -0.163642,0 -0.347955,0.05857 -0.184312,0.05857 -0.347954,0.165365 h -0.01723 v -0.360013 q 0.122301,-0.06029 0.325562,-0.110243 0.204983,-0.05168 0.396186,-0.05168 0.187757,0 0.330729,0.03445 0.142971,0.03445 0.258382,0.110243 0.124024,0.08268 0.187758,0.199815 0.06373,0.117134 0.06373,0.273885 0,0.213596 -0.151584,0.373793 -0.149862,0.158475 -0.354845,0.199816 v 0.02412 q 0.08268,0.01378 0.18948,0.05857 0.106798,0.04306 0.180868,0.108521 z"
         style="font-style:normal;font-variant:normal;font-weight:normal;font-stretch:normal;font-size:3.52778px;font-family:Verdana;-inkscape-font-specification:Verdana;stroke-width:0.264583px"
         id="path115"
         inkscape:connector-curvature="0" />
    </g>
    <rect
       style="opacity:1;fill:#000000;fill-opacity:1;stroke:none;stroke-width:1.62462;stroke-linecap:butt;stroke-linejoin:miter;stroke-miterlimit:4;stroke-dasharray:none;stroke-dashoffset:0;stroke-opacity:1"
       id="rect897"
       width="31.672747"
       height="20.000002"
       x="29.883623"
       y="102.71259"
       rx="4.006938"
       ry="1.8795861" />
    <g
       aria-label="LED0"
       style="font-style:normal;font-variant:normal;font-weight:normal;font-stretch:normal;font-size:7.05556px;line-height:0%;font-family:Arial;-inkscape-font-specification:'Arial, Normal';font-variant-ligatures:normal;font-variant-caps:normal;font-variant-numeric:normal;text-align:center;letter-spacing:0px;word-spacing:0px;writing-mode:lr-tb;text-anchor:middle;fill:#000000;fill-opacity:1;stroke:none;stroke-width:0.264583px;stroke-linecap:butt;stroke-linejoin:miter;stroke-opacity:1"
       id="text148">
      <path
         d="m 12.527845,120.33086 h -1.62264 v -2.56488 h 0.341065 v 2.26171 h 1.281575 z"
         style="font-style:normal;font-variant:normal;font-weight:normal;font-stretch:normal;font-size:3.52778px;font-family:Verdana;-inkscape-font-specification:Verdana;stroke-width:0.264583px"
         id="path66"
         inkscape:connector-curvature="0" />
      <path
         d="M 14.558729,120.33086 H 12.86891 v -2.56488 h 1.689819 v 0.30317 h -1.348755 v 0.7028 h 1.348755 v 0.30317 h -1.348755 v 0.95257 h 1.348755 z"
         style="font-style:normal;font-variant:normal;font-weight:normal;font-stretch:normal;font-size:3.52778px;font-family:Verdana;-inkscape-font-specification:Verdana;stroke-width:0.264583px"
         id="path68"
         inkscape:connector-curvature="0" />
      <path
         d="m 17.268296,119.051 q 0,0.34968 -0.153307,0.6339 -0.151584,0.28422 -0.404798,0.44097 -0.1757,0.10852 -0.392741,0.15675 -0.215319,0.0482 -0.568441,0.0482 h -0.647678 v -2.56488 h 0.640788 q 0.375515,0 0.596001,0.0551 0.222209,0.0534 0.375516,0.14814 0.261827,0.16365 0.408244,0.43581 0.146416,0.27216 0.146416,0.64595 z m -0.356567,-0.005 q 0,-0.30145 -0.105076,-0.50816 -0.105075,-0.2067 -0.313503,-0.32556 -0.151584,-0.0861 -0.322117,-0.11885 -0.170532,-0.0345 -0.408243,-0.0345 h -0.320394 v 1.9792 h 0.320394 q 0.246324,0 0.428914,-0.0362 0.184312,-0.0362 0.337619,-0.13436 0.191203,-0.1223 0.285943,-0.32212 0.09646,-0.19981 0.09646,-0.49953 z"
         style="font-style:normal;font-variant:normal;font-weight:normal;font-stretch:normal;font-size:3.52778px;font-family:Verdana;-inkscape-font-specification:Verdana;stroke-width:0.264583px"
         id="path70"
         inkscape:connector-curvature="0" />
      <path
         d="m 19.48866,119.04756 q 0,0.69074 -0.217041,1.01458 -0.215318,0.32212 -0.670071,0.32212 -0.461643,0 -0.675239,-0.32729 -0.211873,-0.32728 -0.211873,-1.00597 0,-0.68385 0.215318,-1.00941 0.215319,-0.32728 0.671794,-0.32728 0.461643,0 0.673516,0.33245 0.213596,0.33073 0.213596,1.0008 z m -0.45303,0.78203 q 0.06029,-0.13952 0.08096,-0.32728 0.02239,-0.18948 0.02239,-0.45475 0,-0.26183 -0.02239,-0.45475 -0.02067,-0.19293 -0.08268,-0.32729 -0.06029,-0.13263 -0.165365,-0.19981 -0.103353,-0.0672 -0.266995,-0.0672 -0.161919,0 -0.268717,0.0672 -0.105076,0.0672 -0.167087,0.20326 -0.05857,0.12747 -0.08096,0.33245 -0.02067,0.20498 -0.02067,0.44958 0,0.26872 0.01895,0.44959 0.01895,0.18087 0.08096,0.32384 0.05684,0.13436 0.160197,0.20498 0.105075,0.0706 0.27733,0.0706 0.16192,0 0.268718,-0.0672 0.106797,-0.0672 0.165364,-0.20327 z"
         style="font-style:normal;font-variant:normal;font-weight:normal;font-stretch:normal;font-size:3.52778px;font-family:Verdana;-inkscape-font-specification:Verdana;stroke-width:0.264583px"
         id="path72"
         inkscape:connector-curvature="0" />
    </g>
    <g
       transform="translate(0,-0.04148086)"
       aria-label="LED1"
       style="font-style:normal;font-variant:normal;font-weight:normal;font-stretch:normal;font-size:7.05556px;line-height:0%;font-family:Arial;-inkscape-font-specification:'Arial, Normal';font-variant-ligatures:normal;font-variant-caps:normal;font-variant-numeric:normal;text-align:center;letter-spacing:0px;word-spacing:0px;writing-mode:lr-tb;text-anchor:middle;fill:#000000;fill-opacity:1;stroke:none;stroke-width:0.264583px;stroke-linecap:butt;stroke-linejoin:miter;stroke-opacity:1"
       id="text152">
      <path
         d="m 73.530909,120.32915 h -1.62264 v -2.56488 h 0.341065 v 2.26171 h 1.281575 z"
         style="font-style:normal;font-variant:normal;font-weight:normal;font-stretch:normal;font-size:3.52778px;font-family:Verdana;-inkscape-font-specification:Verdana;stroke-width:0.264583px"
         id="path75"
         inkscape:connector-curvature="0" />
      <path
         d="m 75.561793,120.32915 h -1.689819 v -2.56488 h 1.689819 v 0.30317 h -1.348755 v 0.7028 h 1.348755 v 0.30317 h -1.348755 v 0.95257 h 1.348755 z"
         style="font-style:normal;font-variant:normal;font-weight:normal;font-stretch:normal;font-size:3.52778px;font-family:Verdana;-inkscape-font-specification:Verdana;stroke-width:0.264583px"
         id="path77"
         inkscape:connector-curvature="0" />
      <path
         d="m 78.27136,119.04929 q 0,0.34968 -0.153306,0.6339 -0.151585,0.28422 -0.404799,0.44097 -0.1757,0.10852 -0.392741,0.15676 -0.215318,0.0482 -0.568441,0.0482 h -0.647678 v -2.56488 h 0.640788 q 0.375515,0 0.596002,0.0551 0.222208,0.0534 0.375515,0.14813 0.261827,0.16365 0.408244,0.43581 0.146416,0.27216 0.146416,0.64595 z m -0.356567,-0.005 q 0,-0.30145 -0.105075,-0.50815 -0.105076,-0.20671 -0.313504,-0.32557 -0.151584,-0.0861 -0.322117,-0.11885 -0.170532,-0.0345 -0.408243,-0.0345 H 76.44546 v 1.9792 h 0.320394 q 0.246324,0 0.428914,-0.0362 0.184313,-0.0362 0.337619,-0.13436 0.191203,-0.1223 0.285943,-0.32211 0.09646,-0.19982 0.09646,-0.49954 z"
         style="font-style:normal;font-variant:normal;font-weight:normal;font-stretch:normal;font-size:3.52778px;font-family:Verdana;-inkscape-font-specification:Verdana;stroke-width:0.264583px"
         id="path79"
         inkscape:connector-curvature="0" />
      <path
         d="m 80.348753,120.32915 h -1.388374 v -0.26183 h 0.53399 v -1.7191 h -0.53399 v -0.23427 q 0.108521,0 0.232544,-0.0172 0.124024,-0.0189 0.187758,-0.0534 0.07924,-0.0431 0.124023,-0.10852 0.04651,-0.0672 0.0534,-0.17915 h 0.266995 v 2.31166 h 0.523655 z"
         style="font-style:normal;font-variant:normal;font-weight:normal;font-stretch:normal;font-size:3.52778px;font-family:Verdana;-inkscape-font-specification:Verdana;stroke-width:0.264583px"
         id="path81"
         inkscape:connector-curvature="0" />
    </g>
    <g
       style="font-size:10.5833px;line-height:1.25;font-family:monospace;-inkscape-font-specification:monospace;letter-spacing:0px;word-spacing:0px;stroke-width:0.264583"
       id="text2849"
       aria-label="IN0">
      <path
         id="path2908"
         style="font-style:normal;font-variant:normal;font-weight:normal;font-stretch:normal;font-size:3.52778px;font-family:verdana;-inkscape-font-specification:verdana;stroke-width:0.264583"
         d="m 13.302132,95.334236 h -1.012859 v -0.261827 h 0.335897 v -2.041221 h -0.335897 v -0.261827 h 1.012859 v 0.261827 h -0.335897 v 2.041221 h 0.335897 z" />
      <path
         id="path2910"
         style="font-style:normal;font-variant:normal;font-weight:normal;font-stretch:normal;font-size:3.52778px;font-family:verdana;-inkscape-font-specification:verdana;stroke-width:0.264583"
         d="m 15.842891,95.334236 h -0.422024 l -1.21612,-2.294435 v 2.294435 h -0.318671 v -2.564875 h 0.528822 l 1.109322,2.094619 v -2.094619 h 0.318671 z" />
      <path
         id="path2912"
         style="font-style:normal;font-variant:normal;font-weight:normal;font-stretch:normal;font-size:3.52778px;font-family:verdana;-inkscape-font-specification:verdana;stroke-width:0.264583"
         d="m 18.190725,94.050937 q 0,0.690742 -0.217041,1.014582 -0.215319,0.322116 -0.670072,0.322116 -0.461643,0 -0.675239,-0.327284 -0.211873,-0.327284 -0.211873,-1.005969 0,-0.683852 0.215318,-1.009413 0.215319,-0.327285 0.671794,-0.327285 0.461643,0 0.673517,0.332452 0.213596,0.33073 0.213596,1.000801 z m -0.45303,0.782037 q 0.06029,-0.139526 0.08096,-0.327284 0.02239,-0.18948 0.02239,-0.454753 0,-0.261827 -0.02239,-0.454753 -0.02067,-0.192925 -0.08268,-0.327284 -0.06029,-0.132636 -0.165365,-0.199816 -0.103352,-0.06718 -0.266995,-0.06718 -0.161919,0 -0.268717,0.06718 -0.105076,0.06718 -0.167087,0.203261 -0.05857,0.127469 -0.08096,0.332452 -0.02067,0.204983 -0.02067,0.449585 0,0.268718 0.01895,0.449586 0.01895,0.180867 0.08096,0.323839 0.05684,0.134359 0.160197,0.204983 0.105075,0.07062 0.27733,0.07062 0.16192,0 0.268718,-0.06718 0.106798,-0.06718 0.165365,-0.203261 z" />
    </g>
    <g
       style="font-size:10.5833px;line-height:1.25;font-family:monospace;-inkscape-font-specification:monospace;letter-spacing:0px;word-spacing:0px;display:inline;stroke-width:0.264583"
       id="text2849-0"
       aria-label="IN1">
      <path
         id="path2915"
         style="font-style:normal;font-variant:normal;font-weight:normal;font-stretch:normal;font-size:3.52777px;font-family:verdana;-inkscape-font-specification:verdana;stroke-width:0.264583"
         d="m 43.853619,95.291168 h -1.012856 v -0.261826 h 0.335896 V 92.988127 H 42.840763 V 92.7263 h 1.012856 v 0.261827 h -0.335896 v 2.041215 h 0.335896 z" />
      <path
         id="path2917"
         style="font-style:normal;font-variant:normal;font-weight:normal;font-stretch:normal;font-size:3.52777px;font-family:verdana;-inkscape-font-specification:verdana;stroke-width:0.264583"
         d="M 46.394371,95.291168 H 45.972348 L 44.756232,92.99674 v 2.294428 H 44.437561 V 92.7263 h 0.528821 l 1.109319,2.094614 V 92.7263 h 0.31867 z" />
      <path
         id="path2919"
         style="font-style:normal;font-variant:normal;font-weight:normal;font-stretch:normal;font-size:3.52777px;font-family:verdana;-inkscape-font-specification:verdana;stroke-width:0.264583"
         d="m 48.599228,95.291168 h -1.388371 v -0.261826 h 0.533989 v -1.719099 h -0.533989 v -0.234266 q 0.10852,0 0.232544,-0.01723 0.124023,-0.01895 0.187757,-0.0534 0.07924,-0.04306 0.124023,-0.10852 0.04651,-0.06718 0.0534,-0.179144 h 0.266994 v 2.311654 h 0.523654 z" />
    </g>
    <g
       style="font-size:10.5833px;line-height:1.25;font-family:monospace;-inkscape-font-specification:monospace;letter-spacing:0px;word-spacing:0px;display:inline;stroke-width:0.264583"
       id="text2849-0-1"
       aria-label="IN2">
      <path
         id="path2922"
         style="font-style:normal;font-variant:normal;font-weight:normal;font-stretch:normal;font-size:3.52777px;font-family:verdana;-inkscape-font-specification:verdana;stroke-width:0.264583"
         d="m 74.260411,95.335953 h -1.012856 v -0.261827 h 0.335896 v -2.041215 h -0.335896 v -0.261826 h 1.012856 v 0.261826 h -0.335897 v 2.041215 h 0.335897 z" />
      <path
         id="path2924"
         style="font-style:normal;font-variant:normal;font-weight:normal;font-stretch:normal;font-size:3.52777px;font-family:verdana;-inkscape-font-specification:verdana;stroke-width:0.264583"
         d="M 76.801163,95.335953 H 76.37914 l -1.216116,-2.294429 v 2.294429 h -0.318671 v -2.564868 h 0.528821 l 1.109318,2.094613 v -2.094613 h 0.318671 z" />
      <path
         id="path2926"
         style="font-style:normal;font-variant:normal;font-weight:normal;font-stretch:normal;font-size:3.52777px;font-family:verdana;-inkscape-font-specification:verdana;stroke-width:0.264583"
         d="m 79.152435,95.335953 h -1.736324 v -0.360012 q 0.180867,-0.155029 0.361734,-0.310058 0.18259,-0.155029 0.339342,-0.308335 0.330728,-0.320393 0.453029,-0.508151 0.1223,-0.18948 0.1223,-0.408243 0,-0.199815 -0.132636,-0.31178 -0.130913,-0.113688 -0.366902,-0.113688 -0.156751,0 -0.339341,0.05512 -0.182589,0.05512 -0.356566,0.16881 h -0.01723 v -0.361734 q 0.122301,-0.06029 0.325561,-0.110243 0.204983,-0.04995 0.396185,-0.04995 0.394463,0 0.618393,0.191202 0.223931,0.18948 0.223931,0.515041 0,0.146416 -0.0379,0.273884 -0.03617,0.125746 -0.10852,0.239434 -0.06718,0.106798 -0.158474,0.21015 -0.08957,0.103353 -0.218763,0.229099 -0.184312,0.180867 -0.380682,0.351399 -0.19637,0.168809 -0.366902,0.313503 h 1.379757 z" />
    </g>
    <g
       style="font-size:10.5833px;line-height:1.25;font-family:monospace;-inkscape-font-specification:monospace;letter-spacing:0px;word-spacing:0px;stroke-width:0.264583"
       id="text2931"
       aria-label="OUT0">
      <path
         id="path2960"
         style="font-style:normal;font-variant:normal;font-weight:normal;font-stretch:normal;font-size:3.52778px;font-family:Verdana;-inkscape-font-specification:Verdana;fill:#ffffff;fill-opacity:1;stroke-width:0.264583"
         d="m 36.603509,117.6248 q 0.156752,0.17225 0.239434,0.42202 0.08441,0.24977 0.08441,0.56672 0,0.31695 -0.08613,0.56844 -0.0844,0.24977 -0.237711,0.41686 -0.158475,0.17398 -0.375516,0.26183 -0.215319,0.0879 -0.492649,0.0879 -0.27044,0 -0.492649,-0.0896 -0.220486,-0.0896 -0.375516,-0.26011 -0.155029,-0.17053 -0.239434,-0.41858 -0.08268,-0.24805 -0.08268,-0.56672 0,-0.3135 0.08268,-0.56155 0.08268,-0.24977 0.241157,-0.42719 0.151584,-0.16881 0.375516,-0.25838 0.225653,-0.0896 0.490926,-0.0896 0.275608,0 0.494372,0.0913 0.220486,0.0896 0.373793,0.25666 z m -0.03101,0.98874 q 0,-0.49954 -0.223932,-0.76998 -0.223931,-0.27216 -0.611504,-0.27216 -0.391019,0 -0.61495,0.27216 -0.222209,0.27044 -0.222209,0.76998 0,0.50471 0.227376,0.77343 0.227377,0.26699 0.609783,0.26699 0.382405,0 0.608059,-0.26699 0.227377,-0.26872 0.227377,-0.77343 z" />
      <path
         id="path2962"
         style="font-style:normal;font-variant:normal;font-weight:normal;font-stretch:normal;font-size:3.52778px;font-family:Verdana;-inkscape-font-specification:Verdana;fill:#ffffff;fill-opacity:1;stroke-width:0.264583"
         d="m 39.399205,118.86503 q 0,0.27906 -0.06201,0.48749 -0.06029,0.2067 -0.199816,0.34451 -0.132636,0.13091 -0.310059,0.1912 -0.177422,0.0603 -0.413412,0.0603 -0.241156,0 -0.420302,-0.0637 -0.179145,-0.0637 -0.301446,-0.18775 -0.139526,-0.14125 -0.201538,-0.34107 -0.06029,-0.19981 -0.06029,-0.49093 v -1.53479 h 0.341065 v 1.55202 q 0,0.20843 0.02756,0.32901 0.02928,0.12058 0.09646,0.21876 0.07579,0.11197 0.204983,0.16881 0.130914,0.0568 0.313504,0.0568 0.184313,0 0.313504,-0.0551 0.129191,-0.0568 0.206706,-0.17053 0.06718,-0.0982 0.09474,-0.22393 0.02928,-0.12747 0.02928,-0.31523 v -1.56063 h 0.341064 z" />
      <path
         id="path2964"
         style="font-style:normal;font-variant:normal;font-weight:normal;font-stretch:normal;font-size:3.52778px;font-family:Verdana;-inkscape-font-specification:Verdana;fill:#ffffff;fill-opacity:1;stroke-width:0.264583"
         d="m 41.881398,117.63341 h -0.916396 v 2.26171 h -0.341065 v -2.26171 h -0.916396 v -0.30317 h 2.173857 z" />
      <path
         id="path2966"
         style="font-style:normal;font-variant:normal;font-weight:normal;font-stretch:normal;font-size:3.52778px;font-family:Verdana;-inkscape-font-specification:Verdana;fill:#ffffff;fill-opacity:1;stroke-width:0.264583"
         d="m 43.895057,118.61182 q 0,0.69074 -0.217041,1.01458 -0.215318,0.32212 -0.670071,0.32212 -0.461643,0 -0.675239,-0.32729 -0.211874,-0.32728 -0.211874,-1.00597 0,-0.68385 0.215319,-1.00941 0.215318,-0.32728 0.671794,-0.32728 0.461643,0 0.673516,0.33245 0.213596,0.33073 0.213596,1.0008 z m -0.45303,0.78204 q 0.06029,-0.13953 0.08096,-0.32729 0.02239,-0.18948 0.02239,-0.45475 0,-0.26183 -0.02239,-0.45475 -0.02067,-0.19293 -0.08268,-0.32729 -0.06029,-0.13263 -0.165364,-0.19981 -0.103353,-0.0672 -0.266995,-0.0672 -0.16192,0 -0.268718,0.0672 -0.105075,0.0672 -0.167087,0.20326 -0.05857,0.12747 -0.08096,0.33245 -0.02067,0.20498 -0.02067,0.44958 0,0.26872 0.01895,0.44959 0.01895,0.18087 0.08096,0.32384 0.05684,0.13436 0.160197,0.20498 0.105076,0.0706 0.277331,0.0706 0.161919,0 0.268717,-0.0672 0.106798,-0.0672 0.165365,-0.20326 z" />
    </g>
    <g
       style="font-size:10.5833px;line-height:1.25;font-family:monospace;-inkscape-font-specification:monospace;letter-spacing:0px;word-spacing:0px;display:inline;stroke-width:0.264583"
       id="text2931-6"
       aria-label="OUT1">
      <path
         id="path2951"
         style="font-style:normal;font-variant:normal;font-weight:normal;font-stretch:normal;font-size:3.52777px;font-family:Verdana;-inkscape-font-specification:Verdana;fill:#ffffff;fill-opacity:1;stroke-width:0.264583"
         d="m 50.953447,117.6248 q 0.156752,0.17225 0.239434,0.42202 0.0844,0.24977 0.0844,0.56672 0,0.31695 -0.08613,0.56844 -0.0844,0.24977 -0.237711,0.41685 -0.158474,0.17398 -0.375514,0.26183 -0.215318,0.0879 -0.492648,0.0879 -0.270439,0 -0.492647,-0.0896 -0.220486,-0.0896 -0.375515,-0.26011 -0.155029,-0.17053 -0.239434,-0.41857 -0.08268,-0.24805 -0.08268,-0.56672 0,-0.3135 0.08268,-0.56155 0.08268,-0.24977 0.241156,-0.42719 0.151584,-0.16881 0.375515,-0.25838 0.225653,-0.0896 0.490925,-0.0896 0.275607,0 0.49437,0.0913 0.220486,0.0896 0.373792,0.25666 z m -0.03101,0.98874 q 0,-0.49954 -0.22393,-0.76998 -0.223931,-0.27216 -0.611503,-0.27216 -0.391018,0 -0.614949,0.27216 -0.222208,0.27044 -0.222208,0.76998 0,0.5047 0.227376,0.77342 0.227376,0.26699 0.609781,0.26699 0.382404,0 0.608058,-0.26699 0.227375,-0.26872 0.227375,-0.77342 z" />
      <path
         id="path2953"
         style="font-style:normal;font-variant:normal;font-weight:normal;font-stretch:normal;font-size:3.52777px;font-family:Verdana;-inkscape-font-specification:Verdana;fill:#ffffff;fill-opacity:1;stroke-width:0.264583"
         d="m 53.749136,118.86503 q 0,0.27905 -0.06201,0.48748 -0.06029,0.20671 -0.199815,0.34451 -0.132636,0.13091 -0.310058,0.1912 -0.177422,0.0603 -0.41341,0.0603 -0.241156,0 -0.420301,-0.0637 -0.179144,-0.0637 -0.301445,-0.18776 -0.139526,-0.14125 -0.201538,-0.34107 -0.06029,-0.19981 -0.06029,-0.49092 v -1.53479 h 0.341064 v 1.55202 q 0,0.20842 0.02756,0.329 0.02928,0.12058 0.09646,0.21876 0.07579,0.11197 0.204983,0.16881 0.130913,0.0568 0.313503,0.0568 0.184312,0 0.313503,-0.0551 0.129191,-0.0568 0.206705,-0.17054 0.06718,-0.0982 0.09474,-0.22393 0.02928,-0.12746 0.02928,-0.31522 v -1.56063 h 0.341064 z" />
      <path
         id="path2955"
         style="font-style:normal;font-variant:normal;font-weight:normal;font-stretch:normal;font-size:3.52777px;font-family:Verdana;-inkscape-font-specification:Verdana;fill:#ffffff;fill-opacity:1;stroke-width:0.264583"
         d="m 56.231322,117.63341 h -0.916394 v 2.2617 h -0.341063 v -2.2617 h -0.916394 v -0.30317 h 2.173851 z" />
      <path
         id="path2957"
         style="font-style:normal;font-variant:normal;font-weight:normal;font-stretch:normal;font-size:3.52777px;font-family:Verdana;-inkscape-font-specification:Verdana;fill:#ffffff;fill-opacity:1;stroke-width:0.264583"
         d="m 58.102005,119.89511 h -1.388371 v -0.26183 h 0.533989 v -1.71909 h -0.533989 v -0.23427 q 0.10852,0 0.232544,-0.0172 0.124023,-0.0189 0.187757,-0.0534 0.07924,-0.0431 0.124023,-0.10853 0.04651,-0.0672 0.0534,-0.17914 h 0.266994 v 2.31165 h 0.523654 z" />
    </g>
  </g>
  <g
     sodipodi:insensitive="true"
     inkscape:groupmode="layer"
     id="layer4"
     inkscape:label="components"
     style="display:none">
    <circle
       style="display:inline;opacity:1;vector-effect:none;fill:#ff0000;fill-opacity:1;fill-rule:evenodd;stroke:none;stroke-width:1;stroke-linecap:butt;stroke-linejoin:miter;stroke-miterlimit:4;stroke-dasharray:none;stroke-dashoffset:0;stroke-opacity:1;paint-order:normal"
       id="path4954"
       cx="15.24"
       cy="25.809999"
       r="4"
       inkscape:label="P0" />
    <circle
       r="4"
       cy="83.712593"
       cx="15.240004"
       id="circle4956"
       style="display:inline;opacity:1;vector-effect:none;fill:#00ff00;fill-opacity:1;fill-rule:evenodd;stroke:none;stroke-width:1;stroke-linecap:butt;stroke-linejoin:miter;stroke-miterlimit:4;stroke-dasharray:none;stroke-dashoffset:0;stroke-opacity:1;paint-order:normal"
       inkscape:label="IN0" />
    <circle
       style="display:inline;opacity:1;vector-effect:none;fill:#0000ff;fill-opacity:1;fill-rule:evenodd;stroke:none;stroke-width:1;stroke-linecap:butt;stroke-linejoin:miter;stroke-miterlimit:4;stroke-dasharray:none;stroke-dashoffset:0;stroke-opacity:1;paint-order:normal"
       id="circle4958"
       cx="38.545063"
       cy="108.71259"
       r="4"
       inkscape:label="OUT0" />
    <circle
       r="4"
       cy="108.71259"
       cx="15.239998"
       id="circle66"
       style="display:inline;opacity:1;vector-effect:none;fill:#ff00ff;fill-opacity:1;fill-rule:evenodd;stroke:none;stroke-width:1;stroke-linecap:butt;stroke-linejoin:miter;stroke-miterlimit:4;stroke-dasharray:none;stroke-dashoffset:0;stroke-opacity:1;paint-order:normal"
       inkscape:label="LED0" />
    <circle
       r="4"
       cy="25.809992"
       cx="45.719997"
       id="circle64"
       style="display:inline;opacity:1;vector-effect:none;fill:#ff0000;fill-opacity:1;fill-rule:evenodd;stroke:none;stroke-width:1;stroke-linecap:butt;stroke-linejoin:miter;stroke-miterlimit:4;stroke-dasharray:none;stroke-dashoffset:0;stroke-opacity:1;paint-order:normal"
       inkscape:label="P1" />
    <circle
       style="display:inline;opacity:1;vector-effect:none;fill:#ff0000;fill-opacity:1;fill-rule:evenodd;stroke:none;stroke-width:1;stroke-linecap:butt;stroke-linejoin:miter;stroke-miterlimit:4;stroke-dasharray:none;stroke-dashoffset:0;stroke-opacity:1;paint-order:normal"
       id="circle70"
       cx="76.199997"
       cy="25.809992"
       r="4"
       inkscape:label="P2" />
    <circle
       r="4"
       cy="55.809998"
       cx="15.240005"
       id="circle76"
       style="display:inline;opacity:1;vector-effect:none;fill:#ff0000;fill-opacity:1;fill-rule:evenodd;stroke:none;stroke-width:1;stroke-linecap:butt;stroke-linejoin:miter;stroke-miterlimit:4;stroke-dasharray:none;stroke-dashoffset:0;stroke-opacity:1;paint-order:normal"
       inkscape:label="P3" />
    <circle
       style="display:inline;opacity:1;vector-effect:none;fill:#ff0000;fill-opacity:1;fill-rule:evenodd;stroke:none;stroke-width:1;stroke-linecap:butt;stroke-linejoin:miter;stroke-miterlimit:4;stroke-dasharray:none;stroke-dashoffset:0;stroke-opacity:1;paint-order:normal"
       id="circle78"
       cx="45.719997"
       cy="55.80999"
       r="4"
       inkscape:label="P4" />
    <circle
       r="4"
       cy="55.80999"
       cx="76.200005"
       id="circle80"
       style="display:inline;opacity:1;vector-effect:none;fill:#ff0000;fill-opacity:1;fill-rule:evenodd;stroke:none;stroke-width:1;stroke-linecap:butt;stroke-linejoin:miter;stroke-miterlimit:4;stroke-dasharray:none;stroke-dashoffset:0;stroke-opacity:1;paint-order:normal"
       inkscape:label="P5" />
    <circle
       style="display:inline;opacity:1;vector-effect:none;fill:#ff00ff;fill-opacity:1;fill-rule:evenodd;stroke:none;stroke-width:1;stroke-linecap:butt;stroke-linejoin:miter;stroke-miterlimit:4;stroke-dasharray:none;stroke-dashoffset:0;stroke-opacity:1;paint-order:normal"
       id="circle110"
       cx="76.199997"
       cy="108.71259"
       r="4"
       inkscape:label="LED1" />
    <circle
       style="display:inline;opacity:1;vector-effect:none;fill:#00ff00;fill-opacity:1;fill-rule:evenodd;stroke:none;stroke-width:1;stroke-linecap:butt;stroke-linejoin:miter;stroke-miterlimit:4;stroke-dasharray:none;stroke-dashoffset:0;stroke-opacity:1;paint-order:normal"
       id="circle112"
       cx="45.719997"
       cy="83.712593"
       r="4"
       inkscape:label="IN1" />
    <circle
       r="4"
       cy="83.712593"
       cx="76.199997"
       id="circle116"
       style="display:inline;opacity:1;vector-effect:none;fill:#00ff00;fill-opacity:1;fill-rule:evenodd;stroke:none;stroke-width:1;stroke-linecap:butt;stroke-linejoin:miter;stroke-miterlimit:4;stroke-dasharray:none;stroke-dashoffset:0;stroke-opacity:1;paint-order:normal"
       inkscape:label="IN2" />
    <circle
       inkscape:label="OUT1"
       r="4"
       cy="108.71259"
       cx="52.895008"
       id="circle4958-1"
       style="display:inline;opacity:1;vector-effect:none;fill:#0000ff;fill-opacity:1;fill-rule:evenodd;stroke:none;stroke-width:1;stroke-linecap:butt;stroke-linejoin:miter;stroke-miterlimit:4;stroke-dasharray:none;stroke-dashoffset:0;stroke-opacity:1;paint-order:normal" />
  </g>
</svg>
